<svg width="17" height="14" viewBox="0 0 17 14" fill="none" xmlns="http://www.w3.org/2000/svg">
<path d="M15.9356 2.9128L11.0919 0.270342C9.67267 -0.500003 7.89634 0.467407 7.89634 2.01705V2.28578C7.89634 2.52763 8.03369 2.76053 8.2626 2.87697L9.17823 3.37859C9.44376 3.52191 9.78255 3.34276 9.78255 3.04717V2.37535C9.78255 2.03497 10.1671 1.82895 10.4784 1.99914L14.672 4.2833C14.9833 4.45349 14.9833 4.8745 14.672 5.03573L10.4784 7.31989C10.1671 7.49008 9.78255 7.2751 9.78255 6.94368V6.58538C9.78255 5.03573 8.00622 4.06832 6.58699 4.83867L1.75247 7.48113C0.333243 8.25147 0.333243 10.1952 1.75247 10.9656L6.58699 13.6081C8.00622 14.3784 9.78255 13.411 9.78255 11.8613V11.5926C9.78255 11.3508 9.6452 11.1268 9.41629 11.0014L8.50066 10.4998C8.23513 10.3565 7.89634 10.5356 7.89634 10.8312V11.503C7.89634 11.8434 7.51178 12.0494 7.20047 11.8793L3.00688 9.59509C2.69557 9.4249 2.69557 9.0039 3.00688 8.83371L7.20047 6.5585C7.51178 6.38831 7.89634 6.60329 7.89634 6.93472V7.29302C7.89634 8.84266 9.67267 9.81007 11.0919 9.03973L15.9264 6.39727C17.3548 5.62692 17.3548 3.69211 15.9356 2.9128Z" fill="black"/>
</svg>
