<svg width="21" height="20" viewBox="0 0 21 20" fill="none" xmlns="http://www.w3.org/2000/svg">
<path d="M0.750003 10C0.750003 4.61522 5.11523 0.250001 10.5 0.250001C15.8848 0.250002 20.25 4.61523 20.25 10C20.25 15.3848 15.8848 19.75 10.5 19.75C5.11523 19.75 0.750002 15.3848 0.750003 10Z" fill="#B15FFF"/>
<path fill-rule="evenodd" clip-rule="evenodd" d="M11.0745 15.1243C10.7572 15.4416 10.2428 15.4416 9.92546 15.1243L5.37546 10.5743C5.05816 10.257 5.05816 9.74258 5.37546 9.42528C5.69276 9.10798 6.20721 9.10798 6.52451 9.42528L9.68749 12.5883L9.68749 5.4498C9.68749 5.00107 10.0513 4.6373 10.5 4.6373C10.9487 4.6373 11.3125 5.00107 11.3125 5.4498L11.3125 12.5883L14.4755 9.42528C14.7928 9.10798 15.3072 9.10798 15.6245 9.42528C15.9418 9.74258 15.9418 10.257 15.6245 10.5743L11.0745 15.1243Z" fill="white"/>
</svg>
