<svg width="74" height="14" viewBox="0 0 74 14" fill="none" xmlns="http://www.w3.org/2000/svg">
<path d="M13.9996 0H-0.000427246V14H13.9996V0Z" fill="#00B67A"/>
<path d="M28.9996 0H14.9996V14H28.9996V0Z" fill="#00B67A"/>
<path d="M43.9996 0H29.9996V14H43.9996V0Z" fill="#00B67A"/>
<path d="M58.9996 0H44.9996V14H58.9996V0Z" fill="#00B67A"/>
<path d="M73.9996 0H59.9996V14H73.9996V0Z" fill="#00B67A"/>
<path d="M7.01291 9.43229L9.1472 8.89271L10.0389 11.6344L7.01291 9.43229ZM11.9247 5.88854H8.16777L7.01291 2.35938L5.85806 5.88854H2.10114L5.14176 8.07604L3.98691 11.6052L7.02753 9.41771L8.89868 8.07604L11.9247 5.88854Z" fill="#D5D5D5"/>
<path d="M22.216 9.43229L24.3503 8.89271L25.242 11.6344L22.216 9.43229ZM27.1278 5.88854H23.3709L22.216 2.35938L21.0612 5.88854H17.3043L20.3449 8.07604L19.19 11.6052L22.2307 9.41771L24.1018 8.07604L27.1278 5.88854Z" fill="#D5D5D5"/>
<path d="M37.4192 9.43229L39.5535 8.89271L40.4452 11.6344L37.4192 9.43229ZM42.3309 5.88854H38.574L37.4192 2.35938L36.2643 5.88854H32.5074L35.548 8.07604L34.3932 11.6052L37.4338 9.41771L39.3049 8.07604L42.3309 5.88854Z" fill="#D5D5D5"/>
<path d="M52.6223 9.43229L54.7566 8.89271L55.6483 11.6344L52.6223 9.43229ZM57.5341 5.88854H53.7771L52.6223 2.35938L51.4674 5.88854H47.7105L50.7511 8.07604L49.5963 11.6052L52.6369 9.41771L54.5081 8.07604L57.5341 5.88854Z" fill="#D5D5D5"/>
<path d="M67.8254 9.43229L69.9597 8.89271L70.8514 11.6344L67.8254 9.43229ZM72.7372 5.88854H68.9803L67.8254 2.35938L66.6706 5.88854H62.9136L65.9543 8.07604L64.7994 11.6052L67.84 9.41771L69.7112 8.07604L72.7372 5.88854Z" fill="#D5D5D5"/>
</svg>
