<svg width="44" height="12" viewBox="0 0 44 12" fill="none" xmlns="http://www.w3.org/2000/svg">
<path d="M11.5616 4.25098L16.0134 4.25098L16.0134 5.17174L14.2606 5.17174L14.2606 10.3622L13.2998 10.3622L13.2998 5.17174L11.5543 5.17174L11.5616 4.25098ZM15.8227 5.93768L16.6442 5.93768L16.6442 6.79326L16.6588 6.79326C16.6882 6.67103 16.7395 6.55696 16.8128 6.44288C16.8862 6.3288 16.9742 6.22287 17.0842 6.13324C17.1869 6.03546 17.3042 5.96213 17.4362 5.90509C17.5609 5.84805 17.6929 5.81546 17.825 5.81546C17.9276 5.81546 18.001 5.8236 18.0377 5.8236C18.0743 5.83175 18.1183 5.8399 18.155 5.8399L18.155 6.77696C18.0963 6.76066 18.0303 6.75251 17.9643 6.74437C17.8983 6.73622 17.8396 6.72807 17.7736 6.72807C17.6269 6.72807 17.4876 6.76066 17.3556 6.82585C17.2236 6.89104 17.1135 6.98882 17.0109 7.11104C16.9155 7.24141 16.8349 7.39623 16.7762 7.58365C16.7175 7.77106 16.6882 7.99106 16.6882 8.23551L16.6882 10.3378L15.8081 10.3378L15.8227 5.93768ZM22.1888 10.3622L21.3234 10.3622L21.3234 9.74296L21.3087 9.74296C21.1987 9.97111 21.0373 10.1422 20.8246 10.2807C20.6119 10.4193 20.3919 10.4845 20.1719 10.4845C19.6512 10.4845 19.2698 10.3459 19.0351 10.0526C18.8004 9.7674 18.6831 9.32739 18.6831 8.74886L18.6831 5.93768L19.5632 5.93768L19.5632 8.65108C19.5632 9.0422 19.6292 9.31924 19.7685 9.47406C19.9005 9.63703 20.0912 9.71851 20.3332 9.71851C20.5166 9.71851 20.6706 9.68592 20.7953 9.62073C20.92 9.55554 21.0227 9.47406 21.096 9.36813C21.1767 9.2622 21.228 9.13183 21.2647 8.98516C21.3013 8.83849 21.316 8.67552 21.316 8.50441L21.316 5.93768L22.1961 5.93768L22.1961 10.3622L22.1888 10.3622ZM23.6849 8.94442C23.7143 9.22961 23.8096 9.42517 23.9783 9.5474C24.147 9.66147 24.3524 9.71851 24.587 9.71851C24.6677 9.71851 24.7631 9.71036 24.8657 9.69406C24.9684 9.67777 25.0711 9.65332 25.1591 9.61258C25.2545 9.57184 25.3278 9.5148 25.3865 9.43332C25.4451 9.35183 25.4745 9.25406 25.4671 9.13183C25.4598 9.00961 25.4231 8.90368 25.3425 8.82219C25.2618 8.74071 25.1664 8.68367 25.0491 8.62663C24.9318 8.57774 24.7924 8.537 24.6384 8.50441C24.4844 8.47181 24.3304 8.43107 24.169 8.39033C24.0077 8.34959 23.8463 8.3007 23.6923 8.24366C23.5383 8.18662 23.4063 8.11329 23.2816 8.00736C23.1642 7.90958 23.0615 7.78736 22.9955 7.63254C22.9222 7.47772 22.8855 7.29845 22.8855 7.0703C22.8855 6.82585 22.9369 6.63029 23.0469 6.46732C23.1496 6.30436 23.2889 6.17398 23.4503 6.0762C23.6116 5.97842 23.795 5.90509 23.993 5.86435C24.191 5.82361 24.3817 5.80731 24.5577 5.80731C24.7631 5.80731 24.9611 5.83176 25.1444 5.88065C25.3278 5.92954 25.5038 6.00287 25.6505 6.11695C25.8045 6.22287 25.9292 6.36954 26.0245 6.54066C26.1272 6.71177 26.1859 6.92363 26.2152 7.16808L25.2985 7.16808C25.2545 6.93178 25.1591 6.77696 25.0124 6.69548C24.8584 6.614 24.6897 6.57325 24.4917 6.57325C24.433 6.57325 24.3524 6.5814 24.2717 6.58955C24.1837 6.60585 24.1103 6.62214 24.0297 6.65474C23.9563 6.68733 23.8903 6.73622 23.839 6.79326C23.7876 6.8503 23.7583 6.93178 23.7583 7.02956C23.7583 7.15178 23.795 7.24142 23.8683 7.31475C23.9416 7.38808 24.037 7.44512 24.1617 7.50216C24.279 7.55105 24.4184 7.5918 24.5724 7.62439C24.7264 7.65698 24.8878 7.69772 25.0491 7.73846C25.2105 7.77921 25.3645 7.8281 25.5185 7.88513C25.6725 7.94217 25.8119 8.01551 25.9292 8.12144C26.0465 8.21922 26.1492 8.34144 26.2226 8.48811C26.2959 8.63478 26.3326 8.82219 26.3326 9.03405C26.3326 9.2948 26.2812 9.5148 26.1712 9.70221C26.0612 9.88148 25.9219 10.0363 25.7532 10.1504C25.5845 10.2644 25.3865 10.3459 25.1811 10.403C24.9684 10.4519 24.7631 10.4845 24.5577 10.4845C24.3084 10.4845 24.0737 10.4519 23.861 10.3867C23.6483 10.3215 23.4576 10.2237 23.3036 10.1015C23.1496 9.97111 23.0249 9.81629 22.9369 9.62073C22.8489 9.43332 22.7975 9.20517 22.7902 8.93627L23.6776 8.93627L23.6776 8.94442L23.6849 8.94442ZM26.5819 5.93768L27.2493 5.93768L27.2493 4.60136L28.1294 4.60136L28.1294 5.92953L28.9215 5.92953L28.9215 6.65474L28.1294 6.65474L28.1294 9.01775C28.1294 9.12368 28.1368 9.20517 28.1441 9.28665C28.1514 9.35998 28.1735 9.42517 28.1955 9.47406C28.2248 9.52295 28.2688 9.56369 28.3201 9.58814C28.3788 9.61258 28.4521 9.62888 28.5548 9.62888C28.6135 9.62888 28.6795 9.62888 28.7382 9.62073C28.7969 9.61258 28.8629 9.60443 28.9215 9.58814L28.9215 10.3459C28.8262 10.3622 28.7308 10.3704 28.6355 10.3785C28.5402 10.3948 28.4521 10.3948 28.3495 10.3948C28.1148 10.3948 27.9314 10.3704 27.7921 10.3215C27.6527 10.2726 27.5427 10.1993 27.462 10.1096C27.3814 10.0119 27.33 9.89777 27.3007 9.75925C27.2713 9.62073 27.2567 9.44961 27.2493 9.27035L27.2493 6.66288L26.5819 6.66288L26.5819 5.92139L26.5819 5.93768ZM29.5376 5.93768L30.3664 5.93768L30.3664 6.54066L30.381 6.54066C30.5057 6.27991 30.6744 6.10065 30.8944 5.98657C31.1144 5.8725 31.3491 5.81546 31.6132 5.81546C31.9285 5.81546 32.1999 5.8725 32.4346 6.00287C32.6693 6.1251 32.86 6.28806 33.014 6.50807C33.168 6.71992 33.2854 6.97252 33.3587 7.25771C33.432 7.54291 33.476 7.85254 33.476 8.17033C33.476 8.47181 33.4394 8.75701 33.3734 9.03405C33.3 9.31109 33.1973 9.56369 33.058 9.77555C32.9186 9.98741 32.7426 10.1585 32.5226 10.2889C32.3026 10.4193 32.0532 10.4845 31.7599 10.4845C31.6352 10.4845 31.5032 10.4682 31.3785 10.4437C31.2538 10.4193 31.1291 10.3785 31.0118 10.3215C30.8944 10.2645 30.7844 10.1911 30.6891 10.1015C30.5864 10.0119 30.5057 9.90592 30.4397 9.79185L30.425 9.79185L30.425 12L29.5449 12L29.5449 5.93768L29.5376 5.93768ZM32.6106 8.15403C32.6106 7.95847 32.5886 7.76291 32.5373 7.5755C32.4933 7.38809 32.4199 7.22512 32.3246 7.07845C32.2292 6.93178 32.1119 6.8177 31.9799 6.72807C31.8405 6.63844 31.6792 6.5977 31.5032 6.5977C31.1364 6.5977 30.8578 6.73622 30.6671 7.02141C30.4837 7.3066 30.3884 7.68958 30.3884 8.16218C30.3884 8.39033 30.4104 8.59404 30.4617 8.78145C30.513 8.96886 30.5791 9.13183 30.6817 9.27035C30.7771 9.40887 30.8944 9.5148 31.0338 9.59628C31.1731 9.67777 31.3271 9.71851 31.5105 9.71851C31.7158 9.71851 31.8772 9.66962 32.0165 9.57999C32.1559 9.49036 32.2659 9.36813 32.3613 9.22961C32.4493 9.08294 32.5153 8.91997 32.5519 8.73256C32.5886 8.537 32.6106 8.34959 32.6106 8.15403ZM34.1581 4.25098L35.0382 4.25098L35.0382 5.17174L34.1581 5.17174L34.1581 4.25098ZM34.1581 5.93768L35.0382 5.93768L35.0382 10.3622L34.1581 10.3622L34.1581 5.93768ZM35.823 4.25098L36.7031 4.25098L36.7031 10.3622L35.823 10.3622L35.823 4.25098ZM39.3874 10.4845C39.072 10.4845 38.786 10.4274 38.5366 10.3052C38.2872 10.183 38.0819 10.0281 37.9059 9.82444C37.7372 9.62073 37.6052 9.36813 37.5172 9.08294C37.4292 8.79775 37.3778 8.47996 37.3778 8.14588C37.3778 7.8118 37.4218 7.50216 37.5172 7.21697C37.6052 6.93178 37.7372 6.68733 37.9059 6.47547C38.0746 6.27177 38.2872 6.1088 38.5366 5.99472C38.786 5.88065 39.072 5.81546 39.3874 5.81546C39.7027 5.81546 39.9888 5.8725 40.2381 5.99472C40.4875 6.1088 40.6928 6.27177 40.8689 6.47547C41.0376 6.67918 41.1696 6.93178 41.2576 7.21697C41.3456 7.50216 41.3969 7.8118 41.3969 8.14588C41.3969 8.48811 41.3529 8.79775 41.2576 9.08294C41.1622 9.36813 41.0376 9.61258 40.8689 9.82444C40.7002 10.0281 40.4875 10.1911 40.2381 10.3052C39.9888 10.4193 39.7101 10.4845 39.3874 10.4845ZM39.3874 9.71036C39.5781 9.71036 39.7541 9.66147 39.8934 9.57184C40.0401 9.48221 40.1501 9.35999 40.2455 9.21332C40.3408 9.06665 40.4068 8.89553 40.4508 8.71627C40.4948 8.52885 40.5168 8.34144 40.5168 8.14588C40.5168 7.95847 40.4948 7.77106 40.4508 7.58365C40.4068 7.39624 40.3408 7.23327 40.2455 7.0866C40.1501 6.93993 40.0328 6.82585 39.8934 6.73622C39.7467 6.64659 39.5781 6.5977 39.3874 6.5977C39.1967 6.5977 39.0207 6.64659 38.8813 6.73622C38.7346 6.82585 38.6246 6.94808 38.5293 7.0866C38.4339 7.23327 38.3679 7.39624 38.3239 7.58365C38.2799 7.77106 38.2579 7.95847 38.2579 8.14588C38.2579 8.34144 38.2799 8.52885 38.3239 8.71627C38.3679 8.90368 38.4339 9.06664 38.5293 9.21332C38.6246 9.35999 38.742 9.48221 38.8813 9.57184C39.028 9.66962 39.1967 9.71036 39.3874 9.71036ZM41.661 5.93768L42.3284 5.93768L42.3284 4.60136L43.2085 4.60136L43.2085 5.92953L44.0006 5.92953L44.0006 6.65474L43.2085 6.65474L43.2085 9.01776C43.2085 9.12368 43.2158 9.20517 43.2231 9.28665C43.2305 9.35999 43.2525 9.42517 43.2745 9.47406C43.3038 9.52295 43.3478 9.56369 43.3992 9.58814C43.4578 9.61258 43.5312 9.62888 43.6338 9.62888C43.6925 9.62888 43.7585 9.62888 43.8172 9.62073C43.8759 9.61258 43.9419 9.60444 44.0006 9.58814L44.0006 10.3459C43.9052 10.3622 43.8099 10.3704 43.7145 10.3785C43.6192 10.3948 43.5312 10.3948 43.4285 10.3948C43.1938 10.3948 43.0104 10.3704 42.8711 10.3215C42.7317 10.2726 42.6217 10.1993 42.5411 10.1096C42.4604 10.0119 42.409 9.89777 42.3797 9.75925C42.3504 9.62073 42.3357 9.44962 42.3284 9.27035L42.3284 6.66288L41.661 6.66288L41.661 5.92139L41.661 5.93768Z" fill="black"/>
<path d="M10.5387 4.25343L6.5123 4.25343L5.27283 4.61003e-07L4.02602 4.25343L-0.000427617 4.24528L3.25594 6.8772L2.00913 11.1306L5.26549 8.49871L8.52186 11.1306L7.28239 6.8772L10.5387 4.25343Z" fill="#00B67A"/>
<path d="M7.55736 7.83602L7.27866 6.87451L5.2691 8.49603L7.55736 7.83602Z" fill="#005128"/>
</svg>
